#N canvas 619 158 645 534 10;
#X declare -lib mrpeach;
#N canvas 758 125 1038 706 ReceiveThings 0;
#X obj 93 40 import mrpeach;
#X obj 74 141 unpackOSC;
#X floatatom 30 380 5 0 0 0 - - -;
#X floatatom 75 390 5 0 0 0 - - -;
#X floatatom 135 387 5 0 0 0 - - -;
#X floatatom 196 377 5 0 0 0 - - -;
#X obj 149 211 routeOSC /skeletons/bones/leftArm;
#X obj 167 241 unpack f f f f f f f f;
#X floatatom 247 375 5 0 0 0 - - -;
#X floatatom 308 375 5 0 0 0 - - -;
#X floatatom 360 377 5 0 0 0 - - -;
#X floatatom 419 377 5 0 0 0 - - -;
#X obj 421 440 outlet;
#X obj 355 439 outlet;
#X floatatom 480 361 5 0 0 0 - - -;
#X floatatom 525 371 5 0 0 0 - - -;
#X floatatom 585 368 5 0 0 0 - - -;
#X floatatom 646 358 5 0 0 0 - - -;
#X obj 617 222 unpack f f f f f f f f;
#X floatatom 697 356 5 0 0 0 - - -;
#X floatatom 758 356 5 0 0 0 - - -;
#X floatatom 810 358 5 0 0 0 - - -;
#X floatatom 869 358 5 0 0 0 - - -;
#X obj 871 421 outlet;
#X obj 805 420 outlet;
#X obj 106 80 udpreceive 3333;
#X obj 386 136 routeOSC /skeletons/bones/rightArm;
#X connect 1 0 6 0;
#X connect 1 0 26 0;
#X connect 6 0 7 0;
#X connect 7 0 2 0;
#X connect 7 1 3 0;
#X connect 7 2 4 0;
#X connect 7 3 5 0;
#X connect 7 4 8 0;
#X connect 7 5 9 0;
#X connect 7 6 10 0;
#X connect 7 7 11 0;
#X connect 10 0 13 0;
#X connect 11 0 12 0;
#X connect 18 0 14 0;
#X connect 18 1 15 0;
#X connect 18 2 16 0;
#X connect 18 3 17 0;
#X connect 18 4 19 0;
#X connect 18 5 20 0;
#X connect 18 6 21 0;
#X connect 18 7 22 0;
#X connect 21 0 24 0;
#X connect 22 0 23 0;
#X connect 25 0 1 0;
#X connect 26 0 18 0;
#X restore 344 33 pd ReceiveThings;
#X text 357 14 UPD RECEIEVE;
#X obj 387 140 vsl 15 128 0 1 0 0 empty empty empty 0 -9 0 10 -262144
-1 -1 12700 1;
#X obj 382 359 dac~;
#N canvas 1446 499 490 397 volume 0;
#X floatatom 38 61 5 0 0 0 - - -;
#X floatatom 152 54 5 0 0 0 - - -;
#X floatatom 206 58 5 0 0 0 - - -;
#X floatatom 100 59 5 0 0 0 - - -;
#X text 206 127 comment;
#X obj 116 232 +;
#X obj 115 265 / 2;
#X floatatom 133 315 5 0 0 0 - - -;
#X msg 48 123 1;
#X obj 80 156 -;
#X floatatom 91 187 5 0 0 0 - - -;
#X obj 61 94 bng 15 250 50 0 empty empty empty 17 7 0 10 -262144 -1
-1;
#X msg 171 122 1;
#X obj 203 155 -;
#X floatatom 164 187 5 0 0 0 - - -;
#X obj 184 93 bng 15 250 50 0 empty empty empty 17 7 0 10 -262144 -1
-1;
#X obj 138 346 outlet;
#X obj 38 15 inlet;
#X obj 90 18 inlet;
#X obj 145 20 inlet;
#X obj 200 25 inlet;
#X connect 2 0 15 0;
#X connect 2 0 13 1;
#X connect 3 0 9 1;
#X connect 3 0 11 0;
#X connect 5 0 6 0;
#X connect 6 0 7 0;
#X connect 7 0 16 0;
#X connect 8 0 9 0;
#X connect 9 0 10 0;
#X connect 10 0 5 0;
#X connect 11 0 8 0;
#X connect 12 0 13 0;
#X connect 13 0 14 0;
#X connect 14 0 5 1;
#X connect 15 0 12 0;
#X connect 17 0 0 0;
#X connect 18 0 3 0;
#X connect 19 0 1 0;
#X connect 20 0 2 0;
#X restore 361 97 pd volume;
#N canvas 995 426 450 300 loadAudio 0;
#X obj 297 120 bng 15 250 50 0 empty empty empty 17 7 0 10 -262144
-1 -1;
#X obj 133 138 readsf~ 2;
#X msg 91 106 0;
#X obj 121 183 outlet~;
#X obj 175 183 outlet~;
#X obj 53 13 inlet;
#X obj 34 73 inlet;
#X msg 131 42 open kaff.wav \, 1;
#X connect 0 0 7 0;
#X connect 1 0 3 0;
#X connect 1 1 4 0;
#X connect 1 2 0 0;
#X connect 2 0 1 0;
#X connect 5 0 7 0;
#X connect 6 0 2 0;
#X connect 7 0 1 0;
#X restore 130 63 pd loadAudio;
#X obj 199 41 bng 15 250 50 0 empty empty empty 17 7 0 10 -262144 -1
-1;
#X obj 130 39 bng 15 250 50 0 empty empty empty 17 7 0 10 -262144 -1
-1;
#X text 189 26 start;
#X text 125 23 stop;
#X obj 174 210 dac~;
#X obj 387 321 *~ 0.1;
#N canvas 189 150 753 584 delay 0;
#X floatatom 277 132 5 0 0 0 - - -;
#X obj 63 254 hsl 128 15 0 0.9 0 0 empty empty empty -2 -8 0 10 -262144
-1 -1 11100 1;
#X obj 217 343 *~;
#X obj 317 267 vsl 15 128 0 400 0 0 empty empty empty 0 -9 0 10 -262144
-1 -1 0 1;
#X floatatom 334 172 5 0 0 0 - - -;
#X obj 273 196 -;
#X floatatom 311 221 5 0 0 0 - - -;
#X obj 268 253 * 400;
#X obj 277 64 inlet;
#X obj 366 62 inlet;
#X obj 185 520 outlet~;
#X obj 87 132 inlet~;
#X obj 292 424 delwrite~ myDelay 500;
#X obj 262 464 delread~ myDelay 300;
#X connect 0 0 5 1;
#X connect 1 0 2 1;
#X connect 2 0 12 0;
#X connect 3 0 13 0;
#X connect 4 0 5 0;
#X connect 5 0 6 0;
#X connect 6 0 7 0;
#X connect 7 0 3 0;
#X connect 8 0 0 0;
#X connect 9 0 4 0;
#X connect 11 0 12 0;
#X connect 13 0 2 0;
#X connect 13 0 10 0;
#X restore 184 177 pd delay;
#X text 165 161 audioIN;
#X text 367 305 audioIN;
#X obj 32 289 freeverb~;
#X msg 39 246 roomsize~;
#X text 366 20;
#X connect 0 0 4 0;
#X connect 0 0 12 1;
#X connect 0 0 16 0;
#X connect 0 1 4 1;
#X connect 0 2 4 2;
#X connect 0 2 12 2;
#X connect 0 2 16 0;
#X connect 0 3 4 3;
#X connect 2 0 11 1;
#X connect 4 0 2 0;
#X connect 5 0 12 0;
#X connect 5 1 12 0;
#X connect 6 0 5 1;
#X connect 7 0 5 0;
#X connect 11 0 3 0;
#X connect 11 0 3 1;
#X connect 12 0 10 0;
#X connect 12 0 10 1;
